# xmcd CD database file
#
# Track frame offsets:
#	150
#	4435
#	21505
#	39762
#	52500
#	80950
#	95542
#	118117
#	137867
#	151770
#	155702
#	185912
#	205590
#	233005
#	254137
#	275422
#	305510
#
# Disc length: 4317 seconds
#
# Revision: 0
# Processed by: cddbd v1.5.2PL0 Copyright (c) Steve Scherf et al.
# Submitted via: CDex 1.51
#
DISCID=eb10db11
DTITLE=Monica Zetterlund med Lasse Bagge trio - På Café Katalin
DYEAR=1989
DGENRE=Jazz
TTITLE0=Monica Z presenterar
TTITLE1=I valet och kvalet
TTITLE2=Bossa Nova medley - Stockholm är en jävla stad - Siv Larssons dagbok
TTITLE3=My man
TTITLE4=Li'l darling
TTITLE5=The second time around
TTITLE6=Social call
TTITLE7=Att angöra en brygga
TTITLE8=It could happen to you
TTITLE9=Lasse B presenterar
TTITLE10=Milano
TTITLE11=Du är min hela värld
TTITLE12=Trubbel
TTITLE13=He's funny that way
TTITLE14=Svart-vit calypso
TTITLE15=As time goes by
TTITLE16=I can't give you anything but love
EXTD=YEAR: 1989
EXTT0=
EXTT1=
EXTT2=
EXTT3=
EXTT4=
EXTT5=
EXTT6=
EXTT7=
EXTT8=
EXTT9=
EXTT10=
EXTT11=
EXTT12=
EXTT13=
EXTT14=
EXTT15=
EXTT16=
PLAYORDER=
